<svg width="67" height="12" viewBox="0 0 67 12" fill="none" xmlns="http://www.w3.org/2000/svg">
<path d="M0 0.984375C0.546875 1 1 1.01172 1.35938 1.01953C1.72656 1.01953 2.02344 1.01953 2.25 1.01953H2.87109H6.36328C6.37891 1.17578 6.39062 1.32812 6.39844 1.47656C6.41406 1.61719 6.42188 1.74219 6.42188 1.85156C6.42188 1.98438 6.41797 2.10547 6.41016 2.21484C6.40234 2.32422 6.39062 2.44141 6.375 2.56641C6.35938 2.67578 6.34375 2.79297 6.32812 2.91797C6.3125 3.04297 6.28516 3.17188 6.24609 3.30469C6.13672 2.88281 5.98828 2.5625 5.80078 2.34375C5.62109 2.125 5.4375 1.96484 5.25 1.86328C5.03125 1.74609 4.80078 1.68359 4.55859 1.67578C4.23828 1.69141 3.98828 1.71875 3.80859 1.75781C3.62891 1.79688 3.48828 1.85156 3.38672 1.92188C3.28516 1.99219 3.20703 2.07422 3.15234 2.16797C3.10547 2.25391 3.05469 2.35156 3 2.46094C2.95312 2.55469 2.91016 2.69922 2.87109 2.89453C2.83203 3.05859 2.79297 3.28125 2.75391 3.5625C2.72266 3.84375 2.6875 4.20703 2.64844 4.65234C2.85938 4.58984 3.02734 4.53125 3.15234 4.47656C3.28516 4.42188 3.39062 4.375 3.46875 4.33594C3.55469 4.28906 3.61719 4.24609 3.65625 4.20703C3.6875 4.16016 3.73438 4.07422 3.79688 3.94922C3.84375 3.83984 3.90625 3.69141 3.98438 3.50391C4.07031 3.31641 4.17188 3.05859 4.28906 2.73047C4.30469 3.08984 4.3125 3.39062 4.3125 3.63281C4.3125 3.86719 4.31641 4.05859 4.32422 4.20703C4.32422 4.37891 4.32812 4.51562 4.33594 4.61719V5.0625C4.33594 5.22656 4.33594 5.44922 4.33594 5.73047C4.34375 6.00391 4.35547 6.35156 4.37109 6.77344C4.27734 6.48438 4.19141 6.25781 4.11328 6.09375C4.04297 5.92188 3.98047 5.79297 3.92578 5.70703C3.86328 5.60547 3.80859 5.53516 3.76172 5.49609C3.70703 5.48047 3.63281 5.46484 3.53906 5.44922C3.45312 5.44141 3.34375 5.4375 3.21094 5.4375C3.08594 5.4375 2.92578 5.45703 2.73047 5.49609C2.70703 5.92578 2.70312 6.27344 2.71875 6.53906C2.74219 6.79688 2.77344 6.99609 2.8125 7.13672C2.85156 7.30078 2.89844 7.41797 2.95312 7.48828C3.02344 7.55859 3.16406 7.61719 3.375 7.66406C3.58594 7.70312 3.82422 7.71875 4.08984 7.71094C4.36328 7.69531 4.64062 7.64844 4.92188 7.57031C5.20312 7.49219 5.45312 7.36328 5.67188 7.18359C5.83594 7.03516 6.01172 6.84766 6.19922 6.62109C6.35547 6.42578 6.52734 6.17969 6.71484 5.88281C6.91016 5.58594 7.10156 5.22656 7.28906 4.80469C7.25781 5.15625 7.23438 5.44922 7.21875 5.68359C7.21094 5.91016 7.19922 6.09375 7.18359 6.23438C7.16797 6.39844 7.15625 6.52344 7.14844 6.60938C7.14844 6.70312 7.13672 6.83594 7.11328 7.00781C7.09766 7.15625 7.07031 7.35938 7.03125 7.61719C7 7.86719 6.95703 8.1875 6.90234 8.57812C6.53516 8.58594 6.1875 8.59375 5.85938 8.60156C5.53125 8.60156 5.24219 8.60547 4.99219 8.61328C4.69531 8.62109 4.42188 8.62891 4.17188 8.63672C3.91406 8.63672 3.62891 8.64844 3.31641 8.67188C3.04297 8.6875 2.71875 8.71094 2.34375 8.74219C1.97656 8.77344 1.57031 8.81641 1.125 8.87109C1.16406 8.33984 1.19141 7.83984 1.20703 7.37109C1.23047 6.89453 1.24609 6.47656 1.25391 6.11719C1.26172 5.69531 1.26172 5.30469 1.25391 4.94531C1.29297 4.04688 1.27734 3.32031 1.20703 2.76562C1.13672 2.21094 1.05469 1.85547 0.960938 1.69922C0.914062 1.64453 0.847656 1.57812 0.761719 1.5C0.691406 1.4375 0.59375 1.36328 0.46875 1.27734C0.34375 1.19141 0.1875 1.09375 0 0.984375ZM8.70703 4.24219C8.74609 4.19531 8.76953 4.10938 8.77734 3.98438C8.79297 3.85156 8.82422 3.70312 8.87109 3.53906C8.92578 3.375 9.01562 3.20312 9.14062 3.02344C9.26562 2.84375 9.46875 2.67578 9.75 2.51953C10.0234 2.36328 10.2891 2.26953 10.5469 2.23828C10.8047 2.20703 11.0508 2.21875 11.2852 2.27344C11.5195 2.32812 11.7383 2.41406 11.9414 2.53125C12.1523 2.64844 12.3438 2.77734 12.5156 2.91797C12.6328 3.01172 12.7266 3.14844 12.7969 3.32812C12.8672 3.5 12.9219 3.69531 12.9609 3.91406C13 4.13281 13.0273 4.36328 13.043 4.60547C13.0664 4.83984 13.082 5.07031 13.0898 5.29688C13.0977 5.51562 13.1016 5.71875 13.1016 5.90625C13.1094 6.08594 13.125 6.23438 13.1484 6.35156C13.1797 6.52344 13.2344 6.67188 13.3125 6.79688C13.3906 6.91406 13.4766 7.01562 13.5703 7.10156C13.6641 7.17969 13.7578 7.24219 13.8516 7.28906C13.9453 7.33594 14.0273 7.37109 14.0977 7.39453C14.1445 7.41797 14.1875 7.43359 14.2266 7.44141C14.3047 7.47266 14.3594 7.47266 14.3906 7.44141C14.3438 7.55078 14.3008 7.64453 14.2617 7.72266C14.2227 7.80078 14.1914 7.86719 14.168 7.92188C14.1367 7.98438 14.1094 8.03516 14.0859 8.07422C14.0625 8.12109 14.0352 8.16406 14.0039 8.20312C13.9805 8.24219 13.9492 8.28516 13.9102 8.33203C13.8711 8.37891 13.832 8.42969 13.793 8.48438C13.6914 8.44531 13.5938 8.39844 13.5 8.34375C13.4141 8.28906 13.3359 8.23828 13.2656 8.19141C13.1797 8.13672 13.1016 8.08203 13.0312 8.02734C12.9609 7.97266 12.8945 7.91016 12.832 7.83984C12.7773 7.77734 12.7188 7.71094 12.6562 7.64062C12.6016 7.57031 12.5547 7.49219 12.5156 7.40625C12.4688 7.50781 12.3555 7.65234 12.1758 7.83984C12.0039 8.02734 11.7773 8.19922 11.4961 8.35547C11.2148 8.50391 10.8867 8.60938 10.5117 8.67188C10.1445 8.73438 9.73828 8.69141 9.29297 8.54297C9.09766 8.48047 8.91406 8.39062 8.74219 8.27344C8.57031 8.14844 8.42188 8 8.29688 7.82812C8.17969 7.65625 8.09375 7.46094 8.03906 7.24219C7.99219 7.01562 7.99609 6.76562 8.05078 6.49219C8.10547 6.21875 8.20312 5.98828 8.34375 5.80078C8.48438 5.61328 8.65234 5.46094 8.84766 5.34375C9.04297 5.22656 9.26172 5.13672 9.50391 5.07422C9.74609 5.01172 9.99609 4.96875 10.2539 4.94531C10.457 4.9375 10.6602 4.94922 10.8633 4.98047C11.0352 5.01172 11.2148 5.07031 11.4023 5.15625C11.5898 5.23438 11.75 5.35547 11.8828 5.51953C11.875 5.10547 11.8594 4.77734 11.8359 4.53516C11.8203 4.28516 11.8047 4.09375 11.7891 3.96094C11.7578 3.80469 11.7305 3.69531 11.707 3.63281C11.668 3.57812 11.625 3.51562 11.5781 3.44531C11.5391 3.375 11.4883 3.3125 11.4258 3.25781C11.3633 3.19531 11.2852 3.14453 11.1914 3.10547C11.0977 3.06641 10.9883 3.05078 10.8633 3.05859C10.7305 3.06641 10.625 3.10156 10.5469 3.16406C10.4688 3.22656 10.4062 3.30078 10.3594 3.38672C10.3203 3.46484 10.2969 3.55078 10.2891 3.64453C10.2812 3.73828 10.2852 3.82031 10.3008 3.89062C10.3164 3.9375 10.3398 3.98828 10.3711 4.04297C10.4023 4.08984 10.4453 4.14062 10.5 4.19531C10.5547 4.25 10.6289 4.29688 10.7227 4.33594C10.543 4.35938 10.3828 4.37891 10.2422 4.39453C10.1016 4.40234 9.98047 4.41406 9.87891 4.42969C9.76172 4.44531 9.66016 4.45703 9.57422 4.46484C9.48828 4.47266 9.38672 4.48828 9.26953 4.51172C9.16797 4.52734 9.04297 4.54688 8.89453 4.57031C8.74609 4.59375 8.57422 4.625 8.37891 4.66406C8.42578 4.60938 8.46875 4.55859 8.50781 4.51172C8.54688 4.45703 8.58203 4.41016 8.61328 4.37109C8.64453 4.32422 8.67578 4.28125 8.70703 4.24219ZM10.4648 5.63672C10.3242 5.64453 10.1836 5.67969 10.043 5.74219C9.90234 5.79688 9.77734 5.87891 9.66797 5.98828C9.55859 6.08984 9.46484 6.21094 9.38672 6.35156C9.31641 6.48438 9.28125 6.63281 9.28125 6.79688C9.28125 6.96094 9.32031 7.10547 9.39844 7.23047C9.48438 7.34766 9.59375 7.44531 9.72656 7.52344C9.86719 7.60156 10.0156 7.64844 10.1719 7.66406C10.3359 7.67969 10.4961 7.66406 10.6523 7.61719C10.8008 7.5625 10.9414 7.47656 11.0742 7.35938C11.207 7.23438 11.3203 7.10156 11.4141 6.96094C11.5078 6.8125 11.5742 6.66797 11.6133 6.52734C11.6523 6.37891 11.6562 6.25781 11.625 6.16406C11.5625 5.96094 11.4219 5.82031 11.2031 5.74219C10.9844 5.65625 10.7383 5.62109 10.4648 5.63672ZM19.4414 2.29688C19.3711 2.46875 19.3086 2.625 19.2539 2.76562C19.207 2.90625 19.1641 3.03125 19.125 3.14062C19.0859 3.26562 19.0508 3.375 19.0195 3.46875C18.9883 3.57812 18.9531 3.70312 18.9141 3.84375C18.875 3.96875 18.8242 4.125 18.7617 4.3125C18.707 4.49219 18.6406 4.70703 18.5625 4.95703C18.5 4.58203 18.3867 4.28516 18.2227 4.06641C18.0586 3.83984 17.8906 3.66406 17.7188 3.53906C17.5156 3.39844 17.2969 3.29688 17.0625 3.23438C16.6406 3.16406 16.3359 3.17188 16.1484 3.25781C15.9609 3.34375 15.8359 3.45312 15.7734 3.58594C15.7422 3.64062 15.707 3.71094 15.668 3.79688C15.6367 3.875 15.6094 3.95703 15.5859 4.04297C15.5703 4.12891 15.5664 4.21484 15.5742 4.30078C15.582 4.38672 15.6172 4.45703 15.6797 4.51172C15.7188 4.55078 15.8203 4.60547 15.9844 4.67578C16.1484 4.73828 16.3438 4.8125 16.5703 4.89844C16.8047 4.97656 17.0508 5.0625 17.3086 5.15625C17.5742 5.25 17.8242 5.34375 18.0586 5.4375C18.293 5.53125 18.4961 5.625 18.668 5.71875C18.8398 5.8125 18.9531 5.89844 19.0078 5.97656C19.0547 6.05469 19.1055 6.16016 19.1602 6.29297C19.2227 6.41797 19.2656 6.55859 19.2891 6.71484C19.3203 6.86328 19.3281 7.01953 19.3125 7.18359C19.3047 7.33984 19.2617 7.49609 19.1836 7.65234C19.1055 7.80859 18.9805 7.95312 18.8086 8.08594C18.6445 8.21875 18.4219 8.32812 18.1406 8.41406C17.8125 8.51562 17.4961 8.54297 17.1914 8.49609C16.8867 8.44922 16.6055 8.37891 16.3477 8.28516C16.0977 8.19141 15.8789 8.10156 15.6914 8.01562C15.5039 7.92188 15.3711 7.88281 15.293 7.89844C15.207 7.91406 15.1094 7.95703 15 8.02734C14.8906 8.09766 14.7852 8.17188 14.6836 8.25C14.5898 8.32031 14.5078 8.38672 14.4375 8.44922C14.3672 8.50391 14.332 8.52344 14.332 8.50781C14.332 8.49219 14.3438 8.44531 14.3672 8.36719C14.3984 8.28906 14.4297 8.19531 14.4609 8.08594C14.5 7.96875 14.5352 7.84375 14.5664 7.71094C14.6055 7.57031 14.6328 7.4375 14.6484 7.3125C14.6641 7.21094 14.6836 7.08594 14.707 6.9375C14.7227 6.80469 14.7422 6.64453 14.7656 6.45703C14.7969 6.26172 14.832 6.02734 14.8711 5.75391C14.9102 5.95703 14.9648 6.13281 15.0352 6.28125C15.1133 6.42969 15.1875 6.55859 15.2578 6.66797C15.3438 6.79297 15.4258 6.89844 15.5039 6.98438C15.6211 7.09375 15.7578 7.19531 15.9141 7.28906C16.0781 7.38281 16.2422 7.46484 16.4062 7.53516C16.5703 7.59766 16.7266 7.63672 16.875 7.65234C17.0234 7.66797 17.1484 7.65234 17.25 7.60547C17.3516 7.55859 17.4375 7.47266 17.5078 7.34766C17.5859 7.22266 17.6406 7.08594 17.6719 6.9375C17.7031 6.78906 17.7148 6.64844 17.707 6.51562C17.6992 6.375 17.6641 6.26172 17.6016 6.17578C17.5547 6.12109 17.4453 6.05078 17.2734 5.96484C17.1094 5.87891 16.9102 5.78516 16.6758 5.68359C16.4492 5.58203 16.207 5.47656 15.9492 5.36719C15.6992 5.25781 15.4609 5.14844 15.2344 5.03906C15.0156 4.92188 14.832 4.8125 14.6836 4.71094C14.543 4.60156 14.4648 4.50391 14.4492 4.41797C14.4336 4.29297 14.4219 4.15625 14.4141 4.00781C14.4062 3.85156 14.4141 3.69922 14.4375 3.55078C14.4688 3.39453 14.5234 3.24609 14.6016 3.10547C14.6875 2.96484 14.8125 2.84766 14.9766 2.75391C15.0859 2.69141 15.2305 2.64453 15.4102 2.61328C15.5898 2.58203 15.7891 2.56641 16.0078 2.56641C16.2266 2.55859 16.4531 2.56641 16.6875 2.58984C16.9219 2.60547 17.1445 2.62891 17.3555 2.66016C17.5742 2.68359 17.7695 2.71484 17.9414 2.75391C18.1211 2.79297 18.2578 2.82812 18.3516 2.85938C18.4609 2.89844 18.5781 2.90234 18.7031 2.87109C18.8125 2.84766 18.9297 2.79688 19.0547 2.71875C19.1797 2.64062 19.3086 2.5 19.4414 2.29688ZM19.2656 3C19.4219 3.02344 19.5625 3.04297 19.6875 3.05859C19.8047 3.06641 19.9102 3.07422 20.0039 3.08203C20.1055 3.08984 20.2031 3.09375 20.2969 3.09375C20.3828 3.09375 20.4922 3.08984 20.625 3.08203C20.7344 3.07422 20.875 3.06641 21.0469 3.05859C21.2266 3.04297 21.4375 3.02344 21.6797 3C21.6641 3.03125 21.6328 3.12891 21.5859 3.29297C21.5391 3.44922 21.4922 3.64453 21.4453 3.87891C21.3984 4.10547 21.3555 4.35938 21.3164 4.64062C21.2852 4.91406 21.2695 5.1875 21.2695 5.46094C21.2773 5.72656 21.3125 5.98047 21.375 6.22266C21.4375 6.45703 21.5391 6.64844 21.6797 6.79688C21.9766 7.10156 22.2383 7.28516 22.4648 7.34766C22.6992 7.41016 22.9023 7.40234 23.0742 7.32422C23.2461 7.24609 23.3867 7.12891 23.4961 6.97266C23.6055 6.81641 23.6836 6.67188 23.7305 6.53906C23.8477 6.17969 23.918 5.80078 23.9414 5.40234C23.957 5.05859 23.9297 4.67578 23.8594 4.25391C23.7891 3.83203 23.6211 3.40234 23.3555 2.96484C23.5586 2.98047 23.7344 2.99219 23.8828 3C24.0312 3.00781 24.1602 3.01562 24.2695 3.02344C24.3945 3.03125 24.5039 3.03906 24.5977 3.04688C24.6836 3.05469 24.7852 3.05469 24.9023 3.04688C25.0039 3.04688 25.125 3.04297 25.2656 3.03516C25.4141 3.01953 25.5781 3.00391 25.7578 2.98828C25.7891 3.75391 25.8164 4.4375 25.8398 5.03906C25.8633 5.63281 25.8789 6.16016 25.8867 6.62109C25.9023 7.07422 25.9102 7.46875 25.9102 7.80469C25.9102 8.13281 25.9102 8.41016 25.9102 8.63672C25.9023 9.17578 25.8789 9.53125 25.8398 9.70312C25.7773 9.94531 25.6641 10.1875 25.5 10.4297C25.3438 10.6719 25.1445 10.8867 24.9023 11.0742C24.6602 11.2695 24.3789 11.418 24.0586 11.5195C23.7461 11.6289 23.4023 11.668 23.0273 11.6367C22.6602 11.6055 22.3672 11.5547 22.1484 11.4844C21.9375 11.4219 21.7695 11.3477 21.6445 11.2617C21.5273 11.1758 21.4414 11.0859 21.3867 10.9922C21.3398 10.8984 21.3047 10.8008 21.2812 10.6992C21.2578 10.6055 21.2344 10.5156 21.2109 10.4297C21.1875 10.3438 21.1406 10.2695 21.0703 10.207C20.9844 10.1367 20.8945 10.0664 20.8008 9.99609C20.7148 9.93359 20.6211 9.87109 20.5195 9.80859C20.4258 9.74609 20.332 9.69531 20.2383 9.65625L22.7344 9.51562C22.6641 9.60938 22.6133 9.69531 22.582 9.77344C22.5508 9.85156 22.5312 9.91797 22.5234 9.97266C22.5156 10.043 22.5195 10.1016 22.5352 10.1484C22.5664 10.2422 22.6211 10.3438 22.6992 10.4531C22.7852 10.5703 22.8945 10.6602 23.0273 10.7227C23.1602 10.793 23.3164 10.8164 23.4961 10.793C23.6836 10.7695 23.8945 10.6719 24.1289 10.5C24.3242 10.3516 24.4883 10.1133 24.6211 9.78516C24.7305 9.50391 24.8164 9.10938 24.8789 8.60156C24.9414 8.09375 24.9297 7.42578 24.8438 6.59766C24.7031 7.08203 24.5117 7.45312 24.2695 7.71094C24.0273 7.96875 23.7852 8.15625 23.543 8.27344C23.2617 8.41406 22.9688 8.48828 22.6641 8.49609C22.2578 8.48047 21.9102 8.42969 21.6211 8.34375C21.332 8.25 21.0938 8.125 20.9062 7.96875C20.7188 7.8125 20.5703 7.62891 20.4609 7.41797C20.3594 7.19922 20.2852 6.95703 20.2383 6.69141C20.1914 6.42578 20.168 6.16016 20.168 5.89453C20.168 5.62109 20.168 5.36719 20.168 5.13281C20.1758 4.89844 20.1797 4.6875 20.1797 4.5C20.1797 4.30469 20.1602 4.14844 20.1211 4.03125C20.0742 3.91406 20.0117 3.79688 19.9336 3.67969C19.8711 3.57812 19.7852 3.46875 19.6758 3.35156C19.5586 3.22656 19.4219 3.10938 19.2656 3ZM29.9414 0.597656C30.2383 0.667969 30.5039 0.722656 30.7383 0.761719C30.9805 0.792969 31.1836 0.816406 31.3477 0.832031C31.543 0.855469 31.7148 0.863281 31.8633 0.855469C32.0508 0.847656 32.2852 0.820312 32.5664 0.773438C32.8477 0.726562 33.1445 0.679688 33.457 0.632812C33.7695 0.585938 34.0781 0.546875 34.3828 0.515625C34.6875 0.484375 34.9531 0.480469 35.1797 0.503906C35.4062 0.527344 35.6445 0.582031 35.8945 0.667969C36.1445 0.746094 36.3789 0.855469 36.5977 0.996094C36.8164 1.12891 37.0039 1.29297 37.1602 1.48828C37.3242 1.68359 37.4258 1.91016 37.4648 2.16797C37.5039 2.41797 37.4805 2.6875 37.3945 2.97656C37.3086 3.25781 37.1719 3.53516 36.9844 3.80859C36.7969 4.07422 36.5625 4.32031 36.2812 4.54688C36 4.77344 35.6875 4.95703 35.3438 5.09766C35.0703 5.19922 34.7734 5.27734 34.4531 5.33203C34.1797 5.37891 33.8594 5.41016 33.4922 5.42578C33.1328 5.43359 32.75 5.39453 32.3438 5.30859C32.2891 5.53516 32.2578 5.74609 32.25 5.94141C32.25 6.12891 32.2578 6.29688 32.2734 6.44531C32.2969 6.61719 32.3281 6.77344 32.3672 6.91406C32.4141 7.05469 32.4727 7.21875 32.543 7.40625C32.6055 7.5625 32.6758 7.75391 32.7539 7.98047C32.8398 8.19922 32.9414 8.44531 33.0586 8.71875C32.918 8.71875 32.7812 8.72266 32.6484 8.73047C32.5156 8.73047 32.3945 8.73438 32.2852 8.74219C32.1602 8.75 32.043 8.75781 31.9336 8.76562C31.8086 8.77344 31.668 8.78906 31.5117 8.8125C31.3789 8.82812 31.2109 8.85156 31.0078 8.88281C30.8125 8.91406 30.5898 8.95312 30.3398 9C30.5039 8.76562 30.6328 8.55078 30.7266 8.35547C30.8281 8.15234 30.9023 7.97656 30.9492 7.82812C31.0039 7.65625 31.0391 7.5 31.0547 7.35938C31.0625 7.24219 31.0625 7.03516 31.0547 6.73828C31.0547 6.44141 31.0508 6.09766 31.043 5.70703C31.0352 5.31641 31.0234 4.90625 31.0078 4.47656C30.9922 4.04688 30.9727 3.64453 30.9492 3.26953C30.9258 2.88672 30.8984 2.55859 30.8672 2.28516C30.8438 2.01172 30.8203 1.83203 30.7969 1.74609C30.7656 1.64453 30.7109 1.53516 30.6328 1.41797C30.5703 1.31641 30.4805 1.19922 30.3633 1.06641C30.2539 0.925781 30.1133 0.769531 29.9414 0.597656ZM32.3672 2.90625C32.3594 2.98438 32.3555 3.06641 32.3555 3.15234C32.3555 3.31641 32.3672 3.52734 32.3906 3.78516C32.4453 3.91797 32.5117 4.02734 32.5898 4.11328C32.6758 4.19922 32.7656 4.26562 32.8594 4.3125C32.9609 4.35938 33.0625 4.39062 33.1641 4.40625C33.2656 4.42188 33.3672 4.42969 33.4688 4.42969C33.7031 4.42188 33.9492 4.36719 34.207 4.26562C34.5508 4.11719 34.793 3.90625 34.9336 3.63281C35.0742 3.35938 35.1484 3.07812 35.1562 2.78906C35.1641 2.5 35.1133 2.23438 35.0039 1.99219C34.9023 1.75 34.7773 1.58594 34.6289 1.5C34.5039 1.44531 34.3438 1.42188 34.1484 1.42969C33.9766 1.4375 33.7617 1.48047 33.5039 1.55859C33.2461 1.63672 32.9297 1.77734 32.5547 1.98047C32.5156 2.12109 32.4844 2.24609 32.4609 2.35547C32.4375 2.46484 32.418 2.5625 32.4023 2.64844C32.3867 2.74219 32.375 2.82812 32.3672 2.90625ZM40.2188 7.10156C40.4375 7.10156 40.6406 7.07812 40.8281 7.03125C40.9844 6.99219 41.1328 6.92969 41.2734 6.84375C41.4219 6.75 41.5195 6.61328 41.5664 6.43359C41.7227 6.46484 41.8555 6.49219 41.9648 6.51562C42.0742 6.53125 42.168 6.54688 42.2461 6.5625C42.332 6.58594 42.4062 6.60156 42.4688 6.60938C42.5312 6.625 42.6055 6.64062 42.6914 6.65625C42.7695 6.67188 42.8633 6.69141 42.9727 6.71484C43.0898 6.73047 43.2266 6.75391 43.3828 6.78516C43.2656 6.76953 43.1445 6.78125 43.0195 6.82031C42.9023 6.85938 42.7891 6.90234 42.6797 6.94922C42.5547 7.00391 42.4375 7.07031 42.3281 7.14844C42.2578 7.19531 42.1758 7.26562 42.082 7.35938C41.9961 7.45312 41.8711 7.54297 41.707 7.62891C41.543 7.71484 41.3242 7.78906 41.0508 7.85156C40.7852 7.90625 40.4414 7.92578 40.0195 7.91016C39.5117 7.89453 39.0859 7.80469 38.7422 7.64062C38.3984 7.46875 38.1211 7.26172 37.9102 7.01953C37.6992 6.76953 37.5469 6.5 37.4531 6.21094C37.3594 5.92188 37.3086 5.65234 37.3008 5.40234C37.293 5.15234 37.3672 4.89062 37.5234 4.61719C37.6797 4.34375 37.8984 4.09375 38.1797 3.86719C38.4688 3.64062 38.8164 3.45703 39.2227 3.31641C39.6289 3.16797 40.0742 3.09375 40.5586 3.09375C40.8398 3.09375 41.0977 3.12891 41.332 3.19922C41.5742 3.26172 41.793 3.34766 41.9883 3.45703C42.1914 3.56641 42.3672 3.69141 42.5156 3.83203C42.6641 3.96484 42.7891 4.10156 42.8906 4.24219C42.9922 4.39062 43.0781 4.54688 43.1484 4.71094C43.2109 4.85156 43.2617 5.01172 43.3008 5.19141C43.3398 5.37109 43.3516 5.55469 43.3359 5.74219C42.7422 5.75781 42.2617 5.76953 41.8945 5.77734C41.5352 5.78516 41.2539 5.78906 41.0508 5.78906H40.5234H40.125C39.9844 5.78906 39.8008 5.79297 39.5742 5.80078C39.3477 5.80859 39.0703 5.82031 38.7422 5.83594C38.7812 6.14844 38.8789 6.39062 39.0352 6.5625C39.1992 6.72656 39.3711 6.85156 39.5508 6.9375C39.7539 7.03125 39.9766 7.08594 40.2188 7.10156ZM39.1641 4.99219C39.4141 5.00781 39.6211 5.01953 39.7852 5.02734C39.957 5.03516 40.0977 5.04297 40.207 5.05078C40.3242 5.05859 40.418 5.0625 40.4883 5.0625H40.7812C40.9766 5.0625 41.3398 5.05078 41.8711 5.02734C41.8477 4.68359 41.7734 4.42188 41.6484 4.24219C41.5312 4.0625 41.4062 3.92969 41.2734 3.84375C41.1172 3.75 40.9453 3.69531 40.7578 3.67969C40.25 3.6875 39.8711 3.79297 39.6211 3.99609C39.3789 4.19922 39.2266 4.53125 39.1641 4.99219ZM46.9453 3.73828C47.1484 3.73828 47.3594 3.77734 47.5781 3.85547C47.7969 3.92578 48.0078 4.01953 48.2109 4.13672C48.4141 4.24609 48.5977 4.36719 48.7617 4.5C48.9336 4.625 49.0742 4.74609 49.1836 4.86328C49.3789 5.07422 49.5117 5.35938 49.582 5.71875C49.6602 6.07031 49.6758 6.43359 49.6289 6.80859C49.582 7.17578 49.4727 7.52344 49.3008 7.85156C49.1289 8.17969 48.8906 8.42188 48.5859 8.57812C48.3672 8.6875 48.1523 8.77344 47.9414 8.83594C47.7305 8.89844 47.5273 8.94531 47.332 8.97656C47.1367 9.00781 46.9531 9.02344 46.7812 9.02344C46.6094 9.02344 46.4609 9.01953 46.3359 9.01172C46.1016 8.99609 45.8555 8.91406 45.5977 8.76562C45.3477 8.61719 45.1094 8.43359 44.8828 8.21484C44.6641 7.99609 44.4766 7.75781 44.3203 7.5C44.1641 7.23438 44.0703 6.98438 44.0391 6.75C43.9922 6.42969 43.9844 6.09375 44.0156 5.74219C44.0469 5.39062 44.1602 5.06641 44.3555 4.76953C44.5586 4.47266 44.8633 4.22656 45.2695 4.03125C45.6836 3.83594 46.2422 3.73828 46.9453 3.73828ZM46.5586 8.28516C46.6445 8.30078 46.7617 8.28125 46.9102 8.22656C47.0586 8.16406 47.2031 8.06641 47.3438 7.93359C47.4922 7.80078 47.6211 7.63281 47.7305 7.42969C47.8477 7.21875 47.918 6.96484 47.9414 6.66797C47.9648 6.37891 47.9648 6.11328 47.9414 5.87109C47.9258 5.62891 47.8906 5.41797 47.8359 5.23828C47.7812 5.05078 47.7188 4.89844 47.6484 4.78125C47.5781 4.66406 47.5039 4.58203 47.4258 4.53516C47.293 4.46484 47.1328 4.41016 46.9453 4.37109C46.7578 4.32422 46.5977 4.33203 46.4648 4.39453C46.4023 4.42578 46.3242 4.49219 46.2305 4.59375C46.1367 4.69531 46.043 4.82422 45.9492 4.98047C45.8555 5.12891 45.7695 5.30078 45.6914 5.49609C45.6211 5.69141 45.5703 5.89453 45.5391 6.10547C45.5078 6.31641 45.5 6.54297 45.5156 6.78516C45.5391 7.02734 45.5898 7.25781 45.668 7.47656C45.7461 7.6875 45.8555 7.87109 45.9961 8.02734C46.1445 8.17578 46.332 8.26172 46.5586 8.28516ZM49.8398 3.52734C50.0898 3.48828 50.293 3.45703 50.4492 3.43359C50.6133 3.40234 50.7461 3.37891 50.8477 3.36328C50.9648 3.33984 51.0547 3.32031 51.1172 3.30469C51.1797 3.28906 51.2695 3.26562 51.3867 3.23438C51.4883 3.20312 51.6211 3.16797 51.7852 3.12891C51.9492 3.08203 52.1562 3.01953 52.4062 2.94141C52.3438 3.01953 52.293 3.08984 52.2539 3.15234C52.2227 3.20703 52.1914 3.25391 52.1602 3.29297C52.1289 3.33984 52.1016 3.38281 52.0781 3.42188C52.0547 3.46094 52.0312 3.51953 52.0078 3.59766C51.9922 3.66016 51.9727 3.75 51.9492 3.86719C51.9258 3.97656 51.9062 4.12109 51.8906 4.30078C52.3125 4.03516 52.6992 3.83594 53.0508 3.70312C53.4102 3.57031 53.7227 3.47656 53.9883 3.42188C54.3008 3.35938 54.582 3.33594 54.832 3.35156C55.1445 3.375 55.4336 3.44531 55.6992 3.5625C55.9727 3.67188 56.2188 3.80469 56.4375 3.96094C56.6562 4.11719 56.8477 4.28906 57.0117 4.47656C57.1758 4.66406 57.3047 4.85156 57.3984 5.03906C57.4609 5.16406 57.5 5.34375 57.5156 5.57812C57.5391 5.8125 57.5156 6.0625 57.4453 6.32812C57.375 6.59375 57.25 6.85547 57.0703 7.11328C56.8984 7.36328 56.6523 7.5625 56.332 7.71094C55.7773 7.96094 55.2266 8.10156 54.6797 8.13281C54.4453 8.14844 54.2031 8.14062 53.9531 8.10938C53.7109 8.07812 53.4648 8.01172 53.2148 7.91016C52.9727 7.80859 52.7383 7.66406 52.5117 7.47656C52.2852 7.28125 52.0781 7.03125 51.8906 6.72656C51.8281 7.125 51.7812 7.47266 51.75 7.76953C51.7266 8.05859 51.7109 8.30078 51.7031 8.49609C51.6953 8.72266 51.6953 8.91406 51.7031 9.07031C51.7188 9.22656 51.75 9.39453 51.7969 9.57422C51.8359 9.73047 51.8906 9.91016 51.9609 10.1133C52.0391 10.3242 52.1367 10.543 52.2539 10.7695C52.207 10.7539 52.1406 10.7422 52.0547 10.7344C51.9766 10.7344 51.8945 10.7422 51.8086 10.7578C51.7148 10.7734 51.6094 10.7891 51.4922 10.8047C51.3828 10.8281 51.2617 10.8555 51.1289 10.8867C51.0195 10.9102 50.8906 10.9375 50.7422 10.9688C50.6016 11.0078 50.457 11.0508 50.3086 11.0977C50.3945 10.9961 50.4609 10.8789 50.5078 10.7461C50.5625 10.6211 50.6055 10.5039 50.6367 10.3945C50.668 10.2617 50.6953 10.1289 50.7188 9.99609C50.7266 9.87891 50.7383 9.65625 50.7539 9.32812C50.7773 9.00781 50.7969 8.63672 50.8125 8.21484C50.8281 7.78516 50.8398 7.33594 50.8477 6.86719C50.8633 6.39844 50.8711 5.96484 50.8711 5.56641C50.8789 5.16016 50.8789 4.81641 50.8711 4.53516C50.8633 4.25391 50.8477 4.08984 50.8242 4.04297C50.793 3.98828 50.7344 3.92969 50.6484 3.86719C50.5781 3.8125 50.4766 3.75781 50.3438 3.70312C50.2188 3.64844 50.0508 3.58984 49.8398 3.52734ZM52.6289 5.66016C52.5742 5.83984 52.5625 6.01562 52.5938 6.1875C52.625 6.35938 52.7031 6.51953 52.8281 6.66797C52.9609 6.81641 53.1445 6.94922 53.3789 7.06641C53.6211 7.17578 53.9219 7.25781 54.2812 7.3125C54.6406 7.36719 54.9141 7.35938 55.1016 7.28906C55.2891 7.21875 55.4258 7.10938 55.5117 6.96094C55.6055 6.80469 55.668 6.625 55.6992 6.42188C55.7305 6.21094 55.7695 5.99219 55.8164 5.76562C55.8633 5.54688 55.8555 5.32422 55.793 5.09766C55.7305 4.86328 55.6406 4.65234 55.5234 4.46484C55.4141 4.27734 55.2891 4.125 55.1484 4.00781C55.0156 3.88281 54.8984 3.82031 54.7969 3.82031C54.5547 3.82031 54.3164 3.88281 54.082 4.00781C53.8477 4.13281 53.6328 4.28906 53.4375 4.47656C53.2422 4.66406 53.0703 4.86719 52.9219 5.08594C52.7812 5.29688 52.6836 5.48828 52.6289 5.66016ZM58.2656 9.31641C58.3438 9.19922 58.4062 9.08984 58.4531 8.98828C58.5 8.88672 58.5391 8.80078 58.5703 8.73047C58.6016 8.64453 58.625 8.56641 58.6406 8.49609C58.6484 8.44922 58.6523 8.3125 58.6523 8.08594C58.6523 7.85938 58.6445 7.57422 58.6289 7.23047C58.6211 6.88672 58.6094 6.5 58.5938 6.07031C58.5859 5.64062 58.5703 5.20312 58.5469 4.75781C58.5312 4.3125 58.5117 3.87891 58.4883 3.45703C58.4727 3.03516 58.457 2.65625 58.4414 2.32031C58.4258 1.97656 58.4102 1.69531 58.3945 1.47656C58.3789 1.25781 58.3672 1.13281 58.3594 1.10156C58.3438 1.05469 58.3164 1.00781 58.2773 0.960938C58.1992 0.867188 58.0664 0.777344 57.8789 0.691406C58.2773 0.589844 58.582 0.507813 58.793 0.445312C58.918 0.414063 59.0273 0.382812 59.1211 0.351562C59.207 0.320313 59.293 0.289062 59.3789 0.257812C59.4492 0.226563 59.5273 0.191406 59.6133 0.152344C59.6992 0.105469 59.7773 0.0546875 59.8477 0C59.8086 0.226563 59.7773 0.445312 59.7539 0.65625C59.7305 0.867188 59.7109 1.0625 59.6953 1.24219C59.6797 1.44531 59.6719 1.64062 59.6719 1.82812C59.6328 2.21094 59.6094 2.62891 59.6016 3.08203C59.6016 3.52734 59.6055 3.98047 59.6133 4.44141C59.6211 4.90234 59.6367 5.35156 59.6602 5.78906C59.6836 6.22656 59.707 6.625 59.7305 6.98438C59.7617 7.33594 59.7891 7.63672 59.8125 7.88672C59.8438 8.12891 59.8672 8.28516 59.8828 8.35547C59.9141 8.47266 59.9453 8.58594 59.9766 8.69531C60.0078 8.78906 60.043 8.88672 60.082 8.98828C60.1211 9.09766 60.168 9.18359 60.2227 9.24609H59.0859C58.9844 9.24609 58.8867 9.25 58.793 9.25781C58.707 9.26562 58.6172 9.27344 58.5234 9.28125C58.4297 9.28906 58.3438 9.30078 58.2656 9.31641ZM63.6914 7.10156C63.9102 7.10156 64.1133 7.07812 64.3008 7.03125C64.457 6.99219 64.6055 6.92969 64.7461 6.84375C64.8945 6.75 64.9922 6.61328 65.0391 6.43359C65.1953 6.46484 65.3281 6.49219 65.4375 6.51562C65.5469 6.53125 65.6406 6.54688 65.7188 6.5625C65.8047 6.58594 65.8789 6.60156 65.9414 6.60938C66.0039 6.625 66.0781 6.64062 66.1641 6.65625C66.2422 6.67188 66.3359 6.69141 66.4453 6.71484C66.5625 6.73047 66.6992 6.75391 66.8555 6.78516C66.7383 6.76953 66.6172 6.78125 66.4922 6.82031C66.375 6.85938 66.2617 6.90234 66.1523 6.94922C66.0273 7.00391 65.9102 7.07031 65.8008 7.14844C65.7305 7.19531 65.6484 7.26562 65.5547 7.35938C65.4688 7.45312 65.3438 7.54297 65.1797 7.62891C65.0156 7.71484 64.7969 7.78906 64.5234 7.85156C64.2578 7.90625 63.9141 7.92578 63.4922 7.91016C62.9844 7.89453 62.5586 7.80469 62.2148 7.64062C61.8711 7.46875 61.5938 7.26172 61.3828 7.01953C61.1719 6.76953 61.0195 6.5 60.9258 6.21094C60.832 5.92188 60.7812 5.65234 60.7734 5.40234C60.7656 5.15234 60.8398 4.89062 60.9961 4.61719C61.1523 4.34375 61.3711 4.09375 61.6523 3.86719C61.9414 3.64062 62.2891 3.45703 62.6953 3.31641C63.1016 3.16797 63.5469 3.09375 64.0312 3.09375C64.3125 3.09375 64.5703 3.12891 64.8047 3.19922C65.0469 3.26172 65.2656 3.34766 65.4609 3.45703C65.6641 3.56641 65.8398 3.69141 65.9883 3.83203C66.1367 3.96484 66.2617 4.10156 66.3633 4.24219C66.4648 4.39062 66.5508 4.54688 66.6211 4.71094C66.6836 4.85156 66.7344 5.01172 66.7734 5.19141C66.8125 5.37109 66.8242 5.55469 66.8086 5.74219C66.2148 5.75781 65.7344 5.76953 65.3672 5.77734C65.0078 5.78516 64.7266 5.78906 64.5234 5.78906H63.9961H63.5977C63.457 5.78906 63.2734 5.79297 63.0469 5.80078C62.8203 5.80859 62.543 5.82031 62.2148 5.83594C62.2539 6.14844 62.3516 6.39062 62.5078 6.5625C62.6719 6.72656 62.8438 6.85156 63.0234 6.9375C63.2266 7.03125 63.4492 7.08594 63.6914 7.10156ZM62.6367 4.99219C62.8867 5.00781 63.0938 5.01953 63.2578 5.02734C63.4297 5.03516 63.5703 5.04297 63.6797 5.05078C63.7969 5.05859 63.8906 5.0625 63.9609 5.0625H64.2539C64.4492 5.0625 64.8125 5.05078 65.3438 5.02734C65.3203 4.68359 65.2461 4.42188 65.1211 4.24219C65.0039 4.0625 64.8789 3.92969 64.7461 3.84375C64.5898 3.75 64.418 3.69531 64.2305 3.67969C63.7227 3.6875 63.3438 3.79297 63.0938 3.99609C62.8516 4.19922 62.6992 4.53125 62.6367 4.99219Z" fill="white"/>
</svg>
