<?xml version="1.0" encoding="UTF-8"?>
<svg xmlns="http://www.w3.org/2000/svg" width="37" height="36" viewBox="0 0 37 36" fill="none">
  <rect x="0.429199" width="36" height="36" rx="18" fill="white"></rect>
  <path d="M17.5336 9.80244C17.9013 9.06239 18.9571 9.06239 19.3248 9.80245L21.1475 13.471C21.2931 13.764 21.5729 13.9673 21.8966 14.0152L25.9488 14.6151C26.7663 14.7361 27.0925 15.7401 26.5023 16.3185L23.5766 19.1857C23.3428 19.4147 23.236 19.7436 23.2904 20.0663L23.9721 24.1056C24.1096 24.9204 23.2556 25.5409 22.5231 25.1584L18.8922 23.2618C18.6021 23.1103 18.2563 23.1103 17.9662 23.2618L14.3353 25.1584C13.6028 25.5409 12.7488 24.9204 12.8863 24.1056L13.568 20.0663C13.6224 19.7436 13.5156 19.4147 13.2818 19.1857L10.3561 16.3185C9.76591 15.7401 10.0921 14.7361 10.9096 14.6151L14.9618 14.0152C15.2855 13.9673 15.5653 13.764 15.7109 13.471L17.5336 9.80244Z" fill="#FD5C01"></path>
</svg>
