<svg width="1092" height="1460" viewBox="0 0 1092 1460" fill="none" xmlns="http://www.w3.org/2000/svg">
<path d="M491.878 2.57714C429.745 11.7771 379.745 36.4438 337.878 78.4438C296.678 119.777 273.078 169.91 264.278 234.577C260.411 263.244 262.945 316.31 269.345 341.377C270.411 345.51 271.211 349.91 271.211 351.11C271.211 352.977 264.411 353.244 198.811 353.244C119.478 353.244 119.478 353.244 108.145 361.11C100.945 366.044 91.3448 378.844 86.0114 390.844C75.3448 414.577 75.3448 444.844 86.0114 461.51C91.3448 469.777 94.5448 472.444 110.411 481.244C127.611 490.844 142.945 504.977 148.545 516.444C156.811 533.244 156.411 514.977 156.545 871.911V1197.91L153.345 1204.58C148.811 1214.31 137.078 1224.31 116.011 1236.44C104.278 1243.11 94.1448 1250.18 88.0114 1255.78C82.6781 1260.58 72.6781 1268.44 65.8781 1273.24C50.8114 1283.64 32.2781 1300.98 23.2114 1313.11C-0.388584 1344.58 -7.05525 1389.64 8.14475 1415.78C15.3447 1428.18 27.7448 1438.71 40.5448 1443.24C48.4114 1446.04 82.4114 1451.24 109.211 1453.78C181.745 1460.71 277.478 1461.24 346.545 1455.24C394.278 1451.11 405.078 1447.64 421.345 1431.38C428.678 1424.18 432.011 1419.38 436.011 1410.98L441.211 1400.04L551.878 1399.91H662.545L667.478 1410.44C676.011 1428.58 693.345 1444.44 709.211 1448.58C740.145 1456.58 832.278 1461.38 904.811 1458.71C951.878 1456.98 986.145 1454.18 1016.54 1449.78C1044.14 1445.91 1047.88 1444.98 1058.41 1439.64C1073.61 1431.91 1086.01 1415.24 1089.74 1397.51C1093.08 1381.38 1090.41 1355.91 1083.34 1337.24C1078.14 1323.38 1068.81 1309.51 1055.21 1295.38C1039.48 1279.11 1021.61 1265.51 998.145 1252.31C988.811 1246.98 980.411 1242.18 979.478 1241.64C978.145 1240.84 978.678 1237.11 982.411 1224.31C988.545 1202.98 1001.34 1145.11 1003.21 1130.58C1007.48 1095.24 1001.88 1065.51 987.211 1047.24C977.078 1034.44 958.945 1026.31 934.678 1023.64C909.345 1020.84 894.145 1026.18 875.878 1044.44C866.811 1053.51 858.811 1064.71 826.945 1112.58C785.478 1174.98 767.745 1199.78 760.145 1206.04C752.411 1212.44 736.011 1221.24 723.211 1226.18C701.078 1234.44 696.011 1234.84 609.478 1234.18C541.745 1233.78 530.811 1233.38 523.211 1231.38C511.078 1228.31 504.678 1224.31 501.345 1217.91C498.545 1212.58 498.545 1211.78 498.545 1089.91V967.244L502.011 960.577C509.211 946.444 522.411 940.71 547.878 940.577C563.345 940.577 564.278 940.71 572.811 944.977C583.745 950.31 592.278 959.51 598.545 972.444C604.145 984.31 606.278 991.91 610.411 1014.58C618.678 1059.11 629.611 1080.84 646.411 1085.38C653.878 1087.51 663.611 1085.38 677.078 1078.58C710.011 1062.31 734.945 1030.31 749.878 985.644C761.078 951.777 765.745 921.111 766.811 874.577C767.878 827.911 764.811 793.244 755.745 750.577C746.811 709.244 730.278 665.777 716.145 647.111C702.945 629.777 689.345 624.977 667.478 629.911C638.678 636.444 627.611 654.844 618.678 710.844C614.945 733.777 607.878 748.711 594.411 762.044C580.945 775.244 563.345 783.111 543.078 784.711C529.078 785.911 522.945 783.511 513.878 773.644C496.545 754.711 484.411 713.644 481.078 662.844L480.145 649.244H490.411C501.611 649.244 507.611 647.377 512.145 642.444C516.678 637.511 517.878 632.844 516.411 627.244C515.211 622.977 515.478 621.644 518.278 617.511C522.011 611.644 527.211 598.311 527.211 594.177C527.211 592.577 528.411 589.777 529.745 588.044L532.145 584.844L533.078 591.377C534.145 599.377 539.078 611.644 544.145 618.844C547.078 623.244 547.878 625.777 547.878 632.044C547.878 641.644 551.211 645.777 561.745 648.844C575.745 652.844 602.145 647.377 611.478 638.444C615.745 634.311 616.545 632.844 616.545 628.044C616.545 621.244 612.945 613.111 609.611 612.177C607.478 611.644 607.211 609.777 607.211 590.444C607.211 574.844 606.545 565.777 604.545 555.644C603.078 548.044 601.878 541.777 601.878 541.777C601.878 541.644 604.145 541.11 606.945 540.577C621.478 538.044 658.945 524.577 670.811 517.777C676.278 514.577 676.411 514.577 686.145 516.577C701.078 519.777 720.545 526.844 732.011 533.377C748.278 542.71 761.211 555.777 777.345 579.644C813.345 632.844 827.478 649.511 844.011 658.177C863.211 668.311 884.545 669.111 902.678 660.311C927.611 648.177 946.545 613.511 953.345 567.644C956.411 546.31 955.478 507.377 951.211 487.91C947.745 471.777 936.678 438.71 927.211 416.177C911.211 378.444 897.611 363.244 873.345 356.31C863.745 353.51 860.278 353.244 831.078 353.244C796.411 353.244 798.145 353.644 800.545 345.244C803.878 334.044 807.345 305.51 808.145 283.11C809.078 256.444 807.611 238.844 802.411 211.91C780.545 98.0438 692.945 17.3771 574.545 2.0438C552.945 -0.889529 512.945 -0.622863 491.878 2.57714Z" fill="#F8D442"/>
</svg>
